<svg xmlns="http://www.w3.org/2000/svg" width="8.717" height="16.123" viewBox="0 0 8.717 16.123">
  <g id="facebook-logo" transform="translate(-22.077)">
    <path id="Path_27" data-name="Path 27" d="M30.466,0,28.375,0a3.672,3.672,0,0,0-3.867,3.968V5.8h-2.1a.329.329,0,0,0-.329.329V8.777a.329.329,0,0,0,.329.329h2.1v6.689a.329.329,0,0,0,.329.329h2.743a.329.329,0,0,0,.329-.329V9.106h2.458a.329.329,0,0,0,.329-.329V6.126a.329.329,0,0,0-.329-.329H27.908V4.246c0-.745.178-1.124,1.149-1.124h1.408a.329.329,0,0,0,.329-.329V.332A.329.329,0,0,0,30.466,0Z" fill="#e2a08f"/>
  </g>
</svg>
