<svg xmlns="http://www.w3.org/2000/svg" width="16.2" height="16.2" viewBox="0 0 16.2 16.2">
  <g id="instagram-sketched" transform="translate(0 -0.001)">
    <path id="Path_28" data-name="Path 28" d="M10,5.838a4.157,4.157,0,1,0,4.157,4.157A4.156,4.156,0,0,0,10,5.838Zm0,6.855a2.7,2.7,0,1,1,2.7-2.7A2.7,2.7,0,0,1,10,12.693Z" transform="translate(-1.9 -1.897)" fill="#e2a08f"/>
    <path id="Path_29" data-name="Path 29" d="M11.44.051c-1.49-.07-5.182-.066-6.674,0a4.841,4.841,0,0,0-3.4,1.31C-.191,2.92.008,5.019.008,8.1c0,3.151-.175,5.2,1.359,6.736C2.931,16.4,5.06,16.192,8.1,16.192c3.121,0,4.2,0,5.3-.425,1.5-.583,2.633-1.924,2.744-4.333.07-1.491.066-5.182,0-6.674C16.015,1.916,14.489.192,11.44.051ZM13.8,13.8c-1.021,1.021-2.438.93-5.716.93-3.375,0-4.728.05-5.716-.94-1.137-1.132-.931-2.95-.931-5.706,0-3.729-.383-6.415,3.36-6.607.86-.03,1.113-.04,3.278-.04l.03.02c3.6,0,6.419-.377,6.589,3.365.038.854.047,1.11.047,3.272,0,3.336.063,4.7-.941,5.706Z" transform="translate(0 0)" fill="#e2a08f"/>
    <circle id="Ellipse_2" data-name="Ellipse 2" cx="0.971" cy="0.971" r="0.971" transform="translate(11.452 2.805)" fill="#e2a08f"/>
  </g>
</svg>
