<svg xmlns="http://www.w3.org/2000/svg" width="19.385" height="15.75" viewBox="0 0 19.385 15.75">
  <g id="twitter" transform="translate(0 -48)">
    <g id="Group_15" data-name="Group 15" transform="translate(0 48)">
      <path id="Path_31" data-name="Path 31" d="M19.385,49.865a8.286,8.286,0,0,1-2.29.628,3.952,3.952,0,0,0,1.748-2.2,7.942,7.942,0,0,1-2.52.962,3.974,3.974,0,0,0-6.874,2.717,4.092,4.092,0,0,0,.092.906A11.248,11.248,0,0,1,1.35,48.725a3.975,3.975,0,0,0,1.221,5.311,3.925,3.925,0,0,1-1.8-.489v.044a3.992,3.992,0,0,0,3.184,3.9,3.966,3.966,0,0,1-1.042.131,3.514,3.514,0,0,1-.752-.068,4.012,4.012,0,0,0,3.713,2.768A7.985,7.985,0,0,1,.951,62.021,7.444,7.444,0,0,1,0,61.967,11.188,11.188,0,0,0,6.1,63.75,11.233,11.233,0,0,0,17.407,52.441c0-.176-.006-.345-.015-.514A7.928,7.928,0,0,0,19.385,49.865Z" transform="translate(0 -48)" fill="#e2a08f"/>
    </g>
  </g>
</svg>
